<svg xmlns="http://www.w3.org/2000/svg" width="149" height="30" viewBox="0 0 149 30" fill="none"><path d="M8.01336 20.7873C9.53937 21.4736 10.8785 21.8168 11.9997 21.8168C12.5603 21.8168 12.9028 21.7856 13.0585 21.692C13.7748 21.5048 14.2731 21.0992 14.5846 20.4753L14.6157 20.4129C14.7714 20.1321 14.8337 19.7889 14.8337 19.3522C14.8337 19.1338 14.7714 18.8842 14.6468 18.5722L14.5846 18.4474C14.1797 17.6051 13.2765 17.0435 11.626 16.5132L11.3145 16.4196L11.2211 16.3884C8.6985 15.6397 7.07906 14.4542 6.30049 12.8007C5.98905 12.1767 5.83334 11.4904 5.83334 10.7416C5.83334 9.96171 5.98905 9.21297 6.30049 8.43303L6.36277 8.30824C7.07906 6.87315 8.23136 5.93723 9.75737 5.46927C10.8474 5.31328 11.4702 5.21969 11.626 5.21969C13.7437 5.21969 16.204 6.09322 18.9757 7.80908L19.5674 6.84196C16.5466 5.0013 13.9305 4.09657 11.6571 4.09657C10.754 4.09657 10.0065 4.19017 9.47708 4.40855C7.63964 4.90771 6.26934 6.03082 5.36619 7.80908L5.27276 8.02746C4.89905 8.93219 4.71219 9.83692 4.71219 10.7416C4.71219 11.7088 4.89905 12.5511 5.27276 13.2998C6.2382 15.2341 8.10679 16.6068 10.9097 17.4491L11.2834 17.5739C12.5603 17.9795 13.3077 18.4162 13.588 18.9154L13.6191 18.9778C13.6814 19.0714 13.7125 19.1962 13.7125 19.3522C13.7125 19.6329 13.6814 19.8201 13.588 19.9761C13.37 20.4753 12.8405 20.7249 11.9997 20.7249C10.6605 20.7249 8.72965 20.0385 7.23478 19.0714L6.76763 18.7906L4.02704 23.2207L4.49419 23.5014C6.70535 24.9989 9.6328 25.9348 11.9997 25.9348C12.7783 25.9348 13.4945 25.8412 14.1485 25.6541C15.986 25.1237 17.3563 23.9694 18.2594 22.2223L18.384 22.004C18.7577 21.0368 18.9446 20.1321 18.9446 19.2898C18.9446 18.541 18.6954 17.6051 18.2283 16.4508C17.3874 14.7661 15.6123 13.487 12.8405 12.6135L12.4045 12.4887C11.5325 12.2079 10.9408 11.9272 10.6605 11.7088C10.2868 11.3968 10.0688 11.1784 9.97537 11.0536L9.91309 10.7104C9.91309 10.3985 9.97537 10.1177 10.1311 9.89931C10.3802 9.43135 10.6294 9.30656 11.626 9.30656C12.9651 9.30656 14.896 9.99291 16.3909 10.96L16.858 11.2408L18.5397 8.55782L18.0414 8.27704C16.1417 7.02914 13.5568 6.15561 11.6571 6.15561C10.8162 6.15561 10.2868 6.21801 10.0065 6.37399C8.72965 6.74836 7.76421 7.5595 7.14135 8.7762C6.86106 9.30656 6.73649 9.93051 6.73649 10.7104C6.73649 11.3032 6.86106 11.8648 7.11021 12.3951C7.76421 13.799 9.22794 14.8285 11.5014 15.5149L11.9062 15.6397L12.7471 15.9516C13.2143 16.1388 13.7125 16.3884 14.2731 16.7004C15.2697 17.2931 15.768 18.1355 15.768 19.2586C15.768 19.8825 15.6123 20.4753 15.332 21.0056C14.678 22.1599 13.5568 22.7527 11.9997 22.7527C10.9408 22.7527 9.44594 22.3471 7.51507 21.5672L6.98563 22.4719L6.95449 22.5343C8.72965 23.439 10.4114 23.8758 12.0308 23.8758C12.934 23.8758 13.7748 23.6886 14.5223 23.3142C15.986 22.5967 16.8891 21.0992 16.8891 19.2274C16.8891 16.2636 14.6157 15.3901 12.2177 14.5477L11.8128 14.423C9.8508 13.8302 8.63622 13.0191 8.13793 11.9272C7.95107 11.5528 7.85764 11.1472 7.85764 10.6793C7.85764 10.0865 7.95107 9.61854 8.16907 9.21297C8.66736 8.30824 9.38365 7.71549 10.3179 7.43471L11.5637 7.27872C13.2143 7.27872 15.0206 7.84028 16.9826 8.93219L16.4843 9.71213C14.46 8.71381 12.8405 8.21465 11.6571 8.21465C11.0654 8.21465 10.7228 8.24585 10.5671 8.33944C9.88194 8.52662 9.38365 8.93219 9.04108 9.58734L9.00994 9.64973C8.85422 9.93051 8.79193 10.3049 8.79193 10.7728C8.79193 11.116 8.85422 11.3656 8.94765 11.5216C9.35251 12.3639 10.4114 13.0503 12.0931 13.5494L12.498 13.6742L13.2765 13.9238C13.37 13.955 13.8683 14.1734 14.7714 14.6101C15.986 15.2965 16.858 16.17 17.3563 17.1995C17.6677 17.8235 17.8234 18.5098 17.8234 19.2586C17.8234 20.1633 17.6677 20.9432 17.3251 21.5984L17.2629 21.7232C16.5466 23.1583 15.3943 24.0942 13.8683 24.5622C12.7783 24.7181 12.1554 24.8117 11.9997 24.8117C10.4114 24.8117 8.35593 24.219 6.4562 23.3142L5.58419 22.8463L7.14135 20.3193L8.01336 20.7873ZM23.6044 4.15897H24.7255V24.8117H36.6533V21.692H27.871V18.697H28.9921V20.5689H37.7745V25.9348H23.6044V4.15897ZM25.7221 4.15897H37.6188V9.49375H30.1444V8.37063H36.4976V5.28208H26.8433V14.2982H34.0996V15.4213H25.7221V4.15897ZM25.7221 16.4196H35.1896V13.2998H27.871V6.21801H35.4076V7.34112H28.9921V12.1767H36.3108V17.5427H26.8433V22.7215H35.5633V23.8446H25.7221V16.4196ZM49.0678 8.15225H56.511V5.18849H43.2751V6.15561H55.4521V7.27872H42.154V4.06538H57.6321V9.27536H50.1889V23.8758H49.0678V8.15225ZM46.9812 9.27536H42.154V8.15225H48.1023V24.7805H51.2166V10.2425H52.3378V25.9348H46.9812V9.27536ZM63.4442 24.8429V4.09657H62.323V25.966L67.7731 25.9348V17.0123L76.3063 6.18681H74.8737L66.6208 16.6068V24.8429H63.4442ZM66.5897 11.3344L67.7419 9.89931V4.09657H64.4408V14.111L65.5619 12.6759V5.25088H66.5897V11.3344ZM80.5729 4.09657H73.6903L64.4408 15.9828V24.0318H65.5619V16.3572L74.2197 5.25088H78.2683L69.486 16.4508L75.0917 24.0318H76.4932L70.9185 16.4508L80.5729 4.09657ZM78.3617 24.8429H74.4066L68.832 17.2931V19.165L73.846 25.9348H80.6041L72.974 15.6709L72.2577 16.5756L78.3617 24.8429ZM95.0116 25.9348C93.1119 25.9348 91.3056 25.4357 89.5927 24.4374C86.167 22.4719 84.0493 18.853 84.0493 14.9845C84.0493 13.0503 84.5475 11.2408 85.5441 9.52494C87.5061 6.15561 91.181 4.03418 95.0116 4.03418C96.9114 4.03418 98.7488 4.53334 100.462 5.50046C103.887 7.4971 105.943 11.2096 105.943 14.9845C105.943 16.8876 105.445 18.6658 104.479 20.3817C102.486 23.8134 98.8734 25.9348 95.0116 25.9348ZM95.0116 5.12609C93.2365 5.12609 91.5859 5.56286 90.091 6.43639C87.0701 8.18345 85.2016 11.3968 85.2016 14.9845C85.2016 16.7628 85.6376 18.4162 86.5096 19.9137C88.2536 22.9399 91.4302 24.8117 95.0116 24.8117C96.7868 24.8117 98.4374 24.375 99.9634 23.5014C102.984 21.7544 104.853 18.5722 104.853 14.9845C104.853 13.2063 104.417 11.5528 103.545 10.0241C101.801 6.99794 98.4997 5.12609 95.0116 5.12609ZM95.0116 23.8134C93.4545 23.8134 91.9908 23.4078 90.5893 22.6279C87.8176 21.0368 86.1047 18.1355 86.1047 14.9845C86.1047 13.3934 86.5096 11.9272 87.2881 10.5545C88.8764 7.80908 91.6793 6.18681 95.0116 6.18681C96.6934 6.18681 98.2194 6.56118 99.5585 7.30992C102.237 8.8074 103.794 11.6152 103.794 14.9845C103.794 16.5756 103.42 18.0419 102.673 19.3834C101.147 22.0975 98.1571 23.8134 95.0116 23.8134ZM95.0116 7.27872C93.6102 7.27872 92.3333 7.62189 91.1499 8.30824C88.7519 9.68093 87.2881 12.1455 87.2881 14.9845C87.2881 16.3572 87.6307 17.6363 88.347 18.8218C89.7173 21.224 92.1465 22.7215 95.0116 22.7215C96.4131 22.7215 97.6899 22.3783 98.8734 21.6608C101.209 20.2881 102.704 17.7299 102.704 14.9845C102.704 13.5806 102.361 12.2703 101.676 11.0848C100.306 8.71381 97.7211 7.27872 95.0116 7.27872ZM95.0116 21.7856C93.7971 21.7856 92.6448 21.4736 91.617 20.8808C89.5304 19.6641 88.1913 17.3555 88.1913 14.9845C88.1913 13.7678 88.5027 12.6135 89.1256 11.5528C90.3402 9.43135 92.489 8.21465 95.0116 8.21465C96.2262 8.21465 97.3474 8.52662 98.3751 9.11938C100.462 10.3361 101.676 12.4575 101.676 14.9845C101.676 16.2324 101.396 17.3555 100.835 18.385C99.6831 20.4441 97.4719 21.7856 95.0116 21.7856ZM95.0116 9.33776C94.0151 9.33776 93.0808 9.58734 92.2088 10.0865C90.4647 11.116 89.3436 12.9567 89.3436 14.9845C89.3436 15.9828 89.5927 16.9188 90.091 17.7611C91.0876 19.5082 92.8939 20.5689 95.0116 20.5689C96.0394 20.5689 97.0048 20.3193 97.8457 19.8201C99.5585 18.8218 100.586 16.9812 100.586 14.9845C100.586 13.955 100.337 13.0191 99.8388 12.1455C98.8422 10.3985 97.0048 9.33776 95.0116 9.33776ZM124.492 24.8117H120.911L116.613 16.794L113.717 16.8252V24.8117H110.572V4.09657H109.45V25.9348H114.869V17.9171H115.959L120.226 25.9348H126.361L122.063 17.8859L121.036 18.2914L124.492 24.8117ZM117.08 5.21969C121.596 5.21969 124.15 7.24752 124.15 10.96C124.15 14.3294 122.126 16.3884 118.606 16.7628L117.766 16.8564L121.658 24.063H122.935L119.541 17.7299C123.278 17.0747 125.271 14.7973 125.271 10.96C125.271 9.68093 124.991 8.52662 124.461 7.49711C123.216 5.28208 120.662 4.09657 117.08 4.09657H111.568V24.0318H112.689V5.21969H117.08ZM116.831 15.8268C121.098 15.8268 123.122 14.3606 123.122 11.116C123.122 8.02746 121.004 6.2804 117.61 6.2804H113.686V9.55614H117.267C118.918 9.55614 119.759 10.0241 119.759 10.96C119.759 12.0519 118.731 12.5823 116.644 12.5823H114.838V10.6481H113.686V13.7054H116.644C119.416 13.7054 120.88 12.7383 120.88 10.96C120.88 10.3985 120.755 9.96171 120.475 9.61854C119.946 8.8386 118.887 8.46423 117.267 8.46423H114.838V7.40351H117.61C120.382 7.40351 122.001 8.74501 122.001 11.116C122.001 13.5806 120.35 14.7349 116.831 14.7349H113.717V15.8268H116.831ZM130.024 4.06538H131.177V24.7805H134.26V17.2619H138.09C139.492 17.2619 140.644 16.95 141.61 16.2948C143.104 15.3901 143.883 13.5494 143.883 11.1472C143.883 7.27872 141.703 5.21969 137.685 5.21969H133.232V12.9879H137.218C138.838 12.9879 139.461 12.4887 139.461 11.1472C139.461 10.0553 138.931 9.52494 137.841 9.52494H135.474V12.0519L134.322 12.0831V8.43303H137.841C139.554 8.43303 140.52 9.43135 140.52 11.1472C140.52 13.1439 139.43 14.1422 137.218 14.1422H132.173V4.06538H137.685C142.201 4.06538 144.973 6.68597 144.973 11.1472C144.973 15.7644 142.45 18.4162 138.09 18.4162H135.412V25.9348H130.024V4.06538ZM132.173 15.1717H137.405C140.301 15.1717 141.703 13.9238 141.703 11.3032C141.703 8.8386 140.364 7.40351 138.215 7.40351H134.322V6.2804H138.215C139.087 6.2804 139.897 6.46759 140.613 6.87315C142.077 7.65309 142.824 9.21297 142.824 11.3032C142.824 14.5477 141.018 16.2636 137.405 16.2636H133.232V24.063H132.173V15.1717Z" fill="#E85A4F"></path></svg>